<?xml version="1.0" encoding="UTF-8" standalone="no" ?>
<!DOCTYPE svg PUBLIC "-//W3C//DTD SVG 1.1//EN" "http://www.w3.org/Graphics/SVG/1.1/DTD/svg11.dtd">
<svg xmlns="http://www.w3.org/2000/svg" xmlns:xlink="http://www.w3.org/1999/xlink" version="1.1" width="1080" height="1080" viewBox="22.5 -76.25 1080 1080" xml:space="preserve">
<desc>Created with Fabric.js 5.2.4</desc>
<defs>
</defs>
<g transform="matrix(1 0 0 1 540 540)" id="448df469-6928-4ca7-8e26-aa993fbc0e3e"  >
</g>
<g transform="matrix(1 0 0 1 540 540)" id="4e694de7-53f8-46c3-89a8-2c92fc9c61ff"  >
<rect style="stroke: none; stroke-width: 1; stroke-dasharray: none; stroke-linecap: butt; stroke-dashoffset: 0; stroke-linejoin: miter; stroke-miterlimit: 4; fill: rgb(255,255,255); fill-rule: nonzero; opacity: 1; visibility: hidden;" vector-effect="non-scaling-stroke"  x="-540" y="-540" rx="0" ry="0" width="1080" height="1080" />
</g>
<g transform="matrix(0.31 0 0 -0.31 353.84 335.73)"  >
<path style="stroke: none; stroke-width: 1; stroke-dasharray: none; stroke-linecap: butt; stroke-dashoffset: 0; stroke-linejoin: miter; stroke-miterlimit: 4; fill: rgb(0,0,0); fill-rule: nonzero; opacity: 1;" vector-effect="non-scaling-stroke"  transform=" translate(-930.01, -2325)" d="M 687 3183 C 676 3173 679 1460 689 1460 C 694 1460 807 1593 939 1756 L 1180 2051 L 1180 2621 L 1180 3190 L 937 3190 C 803 3190 690 3187 687 3183 z" stroke-linecap="round" />
</g>
<g transform="matrix(0.31 0 0 -0.31 602.29 457.46)"  >
<path style="stroke: none; stroke-width: 1; stroke-dasharray: none; stroke-linecap: butt; stroke-dashoffset: 0; stroke-linejoin: miter; stroke-miterlimit: 4; fill: rgb(0,0,0); fill-rule: nonzero; opacity: 1;" vector-effect="non-scaling-stroke"  transform=" translate(-1725, -1919.42)" d="M 1767 3184 C 1764 3181 1794 3152 1834 3120 C 1956 3023 2007 2942 1974 2898 C 1958 2877 1556 2384 1214 1965 C 1043 1756 853 1523 792 1447 L 680 1310 L 682 979 L 685 649 L 1047 1087 C 1246 1328 1420 1539 1434 1555 C 1448 1572 1524 1664 1603 1760 C 1682 1856 1977 2214 2259 2554 C 2540 2895 2770 3177 2770 3182 C 2770 3191 1777 3193 1767 3184 z" stroke-linecap="round" />
</g>
<g transform="matrix(0.31 0 0 -0.31 716.13 707.85)"  >
<path style="stroke: none; stroke-width: 1; stroke-dasharray: none; stroke-linecap: butt; stroke-dashoffset: 0; stroke-linejoin: miter; stroke-miterlimit: 4; fill: rgb(24,134,255); fill-rule: nonzero; opacity: 1;" vector-effect="non-scaling-stroke"  transform=" translate(-2101.67, -1119.14)" d="M 1740 1792 C 1740 1788 1724 1767 1705 1745 C 1645 1677 1440 1423 1440 1417 C 1440 1413 1466 1380 1498 1342 C 1529 1304 1576 1244 1601 1209 C 1680 1101 1918 793 1946 763 C 1952 757 1963 738 1969 721 C 1994 662 1946 599 1780 468 L 1745 441 L 2259 440 C 2668 440 2770 443 2763 453 C 2695 541 1965 1509 1817 1708 C 1750 1798 1740 1808 1740 1792 z" stroke-linecap="round" />
</g>
<g transform="matrix(0.31 0 0 -0.31 354.31 812.93)"  >
<path style="stroke: none; stroke-width: 1; stroke-dasharray: none; stroke-linecap: butt; stroke-dashoffset: 0; stroke-linejoin: miter; stroke-miterlimit: 4; fill: rgb(0,0,0); fill-rule: nonzero; opacity: 1;" vector-effect="non-scaling-stroke"  transform=" translate(-931.52, -777.5)" d="M 928 815 C 700 540 680 513 680 478 L 680 440 L 930 440 L 1179 440 L 1182 688 C 1184 824 1183 975 1180 1025 L 1175 1115 L 928 815 z" stroke-linecap="round" />
</g>
</svg>