<svg xmlns="http://www.w3.org/2000/svg" width="2048" height="2048" viewBox="0 0 2048 2048" version="1.1"><path d="M 1022.717 319.082 C 1022.058 320.137, 1021.183 321, 1020.773 321 C 1019.624 321, 1003 334.274, 1003 335.191 C 1003 335.636, 1002.497 336, 1001.881 336 C 1000.540 336, 989.009 345.178, 989.004 346.250 C 989.002 346.663, 988.438 347.004, 987.750 347.009 C 987.063 347.013, 984.723 348.701, 982.552 350.759 C 980.380 352.816, 978.130 354.520, 977.552 354.545 C 976.973 354.570, 976.650 355.245, 976.833 356.045 C 977.017 356.845, 976.846 357.179, 976.453 356.787 C 975.610 355.943, 960.419 367.467, 959.615 369.560 C 959.311 370.352, 958.486 371, 957.781 371 C 957.076 371, 954.587 372.748, 952.250 374.884 L 948 378.769 948 416.884 C 948 437.848, 948.282 455, 948.626 455 C 948.971 455, 959.788 444.489, 972.664 431.641 L 996.075 408.282 995.959 388.088 C 995.884 375.048, 996.222 367.437, 996.913 366.605 C 997.501 365.896, 997.649 364.982, 997.241 364.575 C 996.834 364.167, 997.155 363.983, 997.955 364.167 C 998.755 364.350, 999.444 364.050, 999.486 363.500 C 999.555 362.597, 1004.057 358.070, 1012.599 350.314 C 1014.304 348.766, 1015.979 346.708, 1016.321 345.741 C 1016.664 344.773, 1017.294 344.091, 1017.722 344.224 C 1018.702 344.531, 1024 339.240, 1024 337.955 C 1024 336.478, 1026.612 336.827, 1027.991 338.489 C 1028.671 339.308, 1029.738 339.686, 1030.363 339.329 C 1030.988 338.972, 1031.199 339.015, 1030.831 339.425 C 1029.955 340.402, 1032.319 343.201, 1045.229 356.471 L 1055.958 367.500 1055.985 388 L 1056.013 408.500 1077.208 429.750 C 1088.865 441.438, 1098.614 451, 1098.873 451 C 1099.131 451, 1100.175 451.753, 1101.192 452.673 C 1102.988 454.299, 1103.039 453.271, 1102.976 417.024 C 1102.940 396.496, 1102.503 378.941, 1102.006 378.011 C 1101.509 377.082, 1098.491 374.350, 1095.301 371.940 C 1092.110 369.530, 1087.025 365.499, 1084 362.982 C 1074.829 355.351, 1069.526 351.420, 1070.474 352.955 C 1070.967 353.755, 1069.004 352.068, 1066.111 349.205 C 1063.218 346.342, 1060.511 344, 1060.095 344 C 1059.680 344, 1057.367 342.233, 1054.957 340.073 C 1052.546 337.913, 1050.220 336.364, 1049.787 336.632 C 1049.354 336.899, 1049 336.717, 1049 336.226 C 1049 335.111, 1026.970 317.652, 1025.207 317.371 C 1024.496 317.257, 1023.375 318.027, 1022.717 319.082 M 1024.457 447.500 C 1024.456 470.050, 1024.588 479.418, 1024.749 468.317 C 1024.909 457.216, 1024.910 438.766, 1024.749 427.317 C 1024.589 415.868, 1024.457 424.950, 1024.457 447.500 M 1048.407 488 C 1048.407 497.075, 1048.559 500.788, 1048.744 496.250 C 1048.929 491.712, 1048.929 484.288, 1048.744 479.750 C 1048.559 475.212, 1048.407 478.925, 1048.407 488 M 837.986 539.750 L 824.500 553.500 838.250 540.014 C 851.023 527.486, 852.453 526, 851.736 526 C 851.591 526, 845.403 532.188, 837.986 539.750 M 943.432 576 C 943.432 589.475, 943.574 594.987, 943.747 588.250 C 943.920 581.513, 943.920 570.487, 943.747 563.750 C 943.574 557.013, 943.432 562.525, 943.432 576 M 815.299 584.745 C 820.139 584.929, 827.789 584.928, 832.299 584.743 C 836.810 584.558, 832.850 584.408, 823.500 584.409 C 814.150 584.410, 810.460 584.562, 815.299 584.745 M 666.963 632.445 C 619.338 680.281, 618.254 681.387, 621.250 679.095 C 622.901 677.831, 623.009 678.823, 623.158 696.628 C 623.244 707.007, 623.289 716.092, 623.258 716.817 C 623.226 717.541, 623.493 717.829, 623.850 717.458 C 624.208 717.087, 653.673 687.807, 689.328 652.391 L 754.156 588 734.161 588 C 720.377 588, 714.052 587.655, 713.796 586.888 C 713.592 586.276, 692.517 606.777, 666.963 632.445 M 1312.986 587.747 L 1298.472 588.051 1362.436 651.992 C 1397.616 687.160, 1426.647 715.687, 1426.950 715.385 C 1427.252 715.083, 1427.730 706.211, 1428.011 695.668 L 1428.521 676.500 1384.036 631.750 L 1339.551 587 1333.525 587.221 C 1330.211 587.343, 1320.969 587.579, 1312.986 587.747 M 886.576 601.924 L 877.694 610.847 883.046 616.455 L 888.399 622.064 897.694 612.807 L 906.988 603.551 901.778 598.276 C 898.913 595.374, 896.319 593, 896.013 593 C 895.708 593, 891.461 597.016, 886.576 601.924 M 1150.250 597.875 C 1147.362 600.506, 1145 603.083, 1145 603.602 C 1145 604.120, 1148.788 608.313, 1153.419 612.919 L 1161.837 621.294 1167.419 616.525 C 1170.488 613.903, 1173 611.552, 1173 611.300 C 1173 610.632, 1156.590 593.024, 1156 593.060 C 1155.725 593.077, 1153.138 595.244, 1150.250 597.875 M 1048.436 625.500 C 1048.436 639.800, 1048.577 645.511, 1048.748 638.191 C 1048.919 630.871, 1048.918 619.171, 1048.747 612.191 C 1048.575 605.211, 1048.435 611.200, 1048.436 625.500 M 1427.402 733 C 1427.402 741.525, 1427.556 745.013, 1427.743 740.750 C 1427.931 736.487, 1427.931 729.513, 1427.743 725.250 C 1427.556 720.987, 1427.402 724.475, 1427.402 733 M 666.409 789.500 C 666.408 798.850, 666.558 802.810, 666.743 798.299 C 666.928 793.789, 666.929 786.139, 666.745 781.299 C 666.562 776.460, 666.410 780.150, 666.409 789.500 M 818.462 774.250 C 818.201 774.938, 818.103 878.325, 818.244 1004 L 818.500 1232.500 819 1002.750 C 819.275 876.387, 819.373 773, 819.219 773 C 819.064 773, 818.724 773.563, 818.462 774.250 M 901.750 773.740 C 905.188 773.936, 910.813 773.936, 914.250 773.740 C 917.688 773.545, 914.875 773.385, 908 773.385 C 901.125 773.385, 898.313 773.545, 901.750 773.740 M 1484.409 791.500 C 1484.408 800.850, 1484.558 804.810, 1484.743 800.299 C 1484.928 795.789, 1484.929 788.139, 1484.745 783.299 C 1484.562 778.460, 1484.410 782.150, 1484.409 791.500 M 1196.982 863.750 L 1186.500 874.500 1197.250 864.018 C 1207.235 854.282, 1208.454 853, 1207.732 853 C 1207.585 853, 1202.747 857.837, 1196.982 863.750 M 609.611 890.888 L 601.777 898.768 601.922 909.084 C 602.002 914.758, 602.195 919.528, 602.351 919.685 C 602.934 920.268, 628 895.784, 628 894.631 C 628 893.972, 625.625 891.086, 622.723 888.220 L 617.445 883.008 609.611 890.888 M 1427.991 888.509 L 1422.539 894.030 1435.770 907.260 L 1449 920.491 1449 909.472 L 1449 898.453 1441.222 890.721 L 1433.444 882.988 1427.991 888.509 M 1147.989 912.750 L 1130.500 930.500 1148.250 913.011 C 1158.013 903.392, 1166 895.404, 1166 895.261 C 1166 894.548, 1164.238 896.259, 1147.989 912.750 M 391.250 944.934 C 389.462 947.096, 388 949.308, 388 949.849 C 388 950.391, 387.608 950.983, 387.130 951.167 C 385.532 951.779, 368.101 973.768, 368.722 974.389 C 369.058 974.725, 368.859 975, 368.279 975 C 367.028 975, 356 988.423, 356 989.947 C 356 990.526, 355.523 991, 354.941 991 C 354.359 991, 354.167 991.461, 354.515 992.025 C 354.864 992.588, 354.745 992.926, 354.251 992.775 C 353.757 992.624, 350.770 995.538, 347.614 999.250 C 344.457 1002.962, 342.143 1006, 342.471 1006 C 342.798 1006, 341.477 1007.590, 339.533 1009.533 C 335.971 1013.096, 335.109 1015, 337.059 1015 C 337.641 1015, 337.898 1015.357, 337.628 1015.792 C 337.359 1016.228, 339.132 1018.756, 341.569 1021.411 C 344.006 1024.065, 346 1026.446, 346 1026.703 C 346 1027.684, 355.338 1039, 356.148 1039 C 356.616 1039, 357 1039.476, 357 1040.058 C 357 1041.512, 380.065 1071, 381.203 1071 C 381.706 1071, 381.862 1071.414, 381.549 1071.920 C 381.237 1072.426, 382.095 1073.716, 383.457 1074.787 C 384.818 1075.858, 385.729 1076.938, 385.480 1077.187 C 385.231 1077.436, 386.687 1079.408, 388.716 1081.570 C 390.744 1083.731, 392.446 1085.950, 392.498 1086.500 C 392.549 1087.050, 393.166 1087.376, 393.870 1087.225 C 394.580 1087.073, 394.846 1087.440, 394.468 1088.052 C 394.094 1088.658, 394.716 1090.019, 395.852 1091.077 C 398.022 1093.098, 399.520 1093.651, 398.543 1092.069 C 398.226 1091.557, 398.436 1090.849, 399.008 1090.495 C 399.581 1090.141, 399.926 1090.447, 399.775 1091.176 C 399.551 1092.253, 406.392 1092.541, 436.415 1092.718 L 473.329 1092.935 470.006 1089.506 C 468.179 1087.621, 466.235 1086.355, 465.687 1086.693 C 465.139 1087.032, 464.975 1086.850, 465.322 1086.288 C 465.669 1085.727, 464.986 1084.420, 463.805 1083.384 C 462.411 1082.162, 461.949 1082.027, 462.488 1083 C 462.946 1083.825, 462.956 1084.170, 462.511 1083.768 C 462.066 1083.365, 461.170 1082.015, 460.519 1080.768 C 459.869 1079.520, 458.698 1078.650, 457.918 1078.833 C 457.138 1079.017, 456.838 1078.828, 457.252 1078.414 C 458.286 1077.381, 454.981 1073.894, 453.712 1074.678 C 453.150 1075.025, 452.975 1074.850, 453.322 1074.288 C 454.123 1072.991, 450.620 1069.739, 449.509 1070.748 C 449.052 1071.162, 448.972 1070.988, 449.329 1070.363 C 449.903 1069.357, 447.227 1066.114, 446.346 1066.750 C 446.156 1066.888, 446.113 1066.822, 446.250 1066.605 C 446.819 1065.705, 442.651 1062.098, 441.712 1062.678 C 441.150 1063.025, 440.975 1062.850, 441.322 1062.288 C 442.123 1060.991, 438.620 1057.739, 437.509 1058.748 C 437.052 1059.162, 436.966 1058.998, 437.316 1058.384 C 438.013 1057.162, 434.750 1053.686, 433.669 1054.498 C 433.301 1054.774, 433.237 1054.688, 433.527 1054.306 C 433.817 1053.925, 431.468 1051, 428.308 1047.806 L 422.563 1042 404.451 1042 L 386.339 1042 373.005 1028.543 C 365.672 1021.141, 359.335 1015.293, 358.924 1015.547 C 358.512 1015.802, 358.282 1015.282, 358.413 1014.392 C 358.544 1013.502, 364.917 1006.770, 372.575 999.432 L 386.500 986.089 405.047 986.045 L 423.594 986 427.317 982.187 C 429.365 980.090, 430.732 978.065, 430.354 977.687 C 429.976 977.309, 430.328 977, 431.137 977 C 433.119 977, 439.235 970.588, 438.268 969.524 C 437.845 969.059, 438.002 968.966, 438.616 969.316 C 439.996 970.103, 443.291 966.653, 442.252 965.509 C 441.838 965.052, 441.978 964.951, 442.563 965.283 C 443.147 965.615, 449.151 960.319, 455.905 953.515 L 468.185 941.144 431.343 941.073 L 394.500 941.002 391.250 944.934 M 1590.179 941.888 L 1585.859 942.500 1595.179 951.811 C 1600.306 956.933, 1605.625 962.437, 1607 964.044 C 1608.375 965.650, 1610.063 966.973, 1610.750 966.982 C 1611.438 966.992, 1612 967.605, 1612 968.345 C 1612 970.140, 1615.462 973.204, 1616.414 972.252 C 1616.828 971.838, 1617.017 972.155, 1616.833 972.955 C 1616.650 973.755, 1617.169 974.430, 1617.987 974.455 C 1618.804 974.480, 1620.066 975.737, 1620.791 977.250 C 1621.516 978.763, 1622.707 980, 1623.438 980 C 1624.169 980, 1625.014 980.945, 1625.316 982.101 C 1625.619 983.257, 1626.345 983.905, 1626.933 983.542 C 1627.521 983.178, 1628 983.608, 1628 984.500 C 1628 985.390, 1628.450 985.840, 1629 985.500 C 1629.550 985.160, 1630 985.344, 1630 985.909 C 1630 986.588, 1635.837 986.791, 1647.250 986.508 L 1664.500 986.081 1678.719 1000.246 C 1691.199 1012.680, 1692.767 1014.600, 1691.540 1015.956 C 1690.771 1016.805, 1690.110 1017.950, 1690.071 1018.500 C 1690.032 1019.050, 1689.588 1019.500, 1689.083 1019.500 C 1687.811 1019.500, 1686.500 1020.938, 1686.500 1022.333 C 1686.500 1022.975, 1686.050 1023.507, 1685.500 1023.515 C 1683.641 1023.544, 1681.963 1025.131, 1682.638 1026.224 C 1683.007 1026.821, 1682.850 1027.025, 1682.288 1026.678 C 1680.991 1025.877, 1677.739 1029.380, 1678.748 1030.491 C 1679.162 1030.948, 1678.998 1031.034, 1678.384 1030.684 C 1677.326 1030.080, 1674.224 1032.645, 1674.071 1034.250 C 1674.032 1034.662, 1673.844 1034.888, 1673.654 1034.750 C 1672.877 1034.189, 1670.064 1037.295, 1670.585 1038.138 C 1670.895 1038.639, 1670.553 1038.926, 1669.824 1038.775 C 1669.096 1038.624, 1668.624 1039.096, 1668.775 1039.824 C 1668.926 1040.553, 1668.619 1040.883, 1668.094 1040.558 C 1667.568 1040.233, 1666.856 1040.425, 1666.510 1040.984 C 1666.121 1041.612, 1658.872 1042, 1647.498 1042 C 1629.561 1042, 1629.076 1042.055, 1627.556 1044.250 C 1626.699 1045.487, 1618.911 1053.657, 1610.249 1062.404 C 1601.587 1071.152, 1594.650 1078.802, 1594.833 1079.404 C 1595.017 1080.007, 1594.832 1080.165, 1594.422 1079.756 C 1593.424 1078.757, 1582.949 1089.109, 1583.711 1090.341 C 1584.040 1090.874, 1583.840 1091.019, 1583.268 1090.666 C 1582.695 1090.312, 1581.744 1090.604, 1581.154 1091.315 C 1580.280 1092.367, 1587.047 1092.638, 1617.585 1092.770 C 1649.525 1092.907, 1655.172 1092.716, 1655.645 1091.482 C 1655.951 1090.685, 1657.956 1088.113, 1660.101 1085.767 C 1662.245 1083.420, 1664 1081.046, 1664 1080.491 C 1664 1079.936, 1664.944 1078.891, 1666.098 1078.171 C 1667.510 1077.289, 1668.023 1076.196, 1667.666 1074.831 C 1667.374 1073.715, 1667.389 1073.056, 1667.699 1073.366 C 1668.636 1074.303, 1672 1072.034, 1672 1070.465 C 1672 1069.659, 1672.362 1069, 1672.804 1069 C 1673.944 1069, 1684.557 1054.822, 1684.225 1053.744 C 1684.074 1053.253, 1684.415 1053.138, 1684.982 1053.489 C 1685.550 1053.840, 1686.302 1053.376, 1686.654 1052.458 C 1687.007 1051.540, 1688.801 1049.149, 1690.643 1047.145 C 1692.484 1045.140, 1693.993 1042.953, 1693.995 1042.285 C 1693.998 1041.617, 1694.913 1040.582, 1696.028 1039.985 C 1697.143 1039.388, 1697.792 1038.472, 1697.469 1037.950 C 1697.146 1037.427, 1697.319 1037, 1697.852 1037 C 1699.014 1037, 1713 1019.658, 1713 1018.218 C 1713 1017.666, 1713.675 1016.955, 1714.500 1016.638 C 1715.325 1016.322, 1716 1015.696, 1716 1015.248 C 1716 1014.304, 1712.505 1009.647, 1709.250 1006.254 C 1708.013 1004.964, 1707 1003.675, 1707 1003.388 C 1707 1003.101, 1703.819 998.959, 1699.931 994.183 C 1696.042 989.408, 1689.258 980.888, 1684.854 975.250 C 1680.451 969.612, 1676.432 965, 1675.924 965 C 1675.416 965, 1675 964.475, 1675 963.834 C 1675 963.193, 1674.331 961.955, 1673.512 961.084 C 1672.694 960.213, 1669.250 955.972, 1665.858 951.660 C 1662.467 947.347, 1659.089 943.588, 1658.352 943.305 C 1657.615 943.022, 1657.246 942.411, 1657.532 941.947 C 1658.121 940.996, 1596.862 940.942, 1590.179 941.888 M 1161.739 977.924 L 1126.500 1012.930 1160.500 1047.286 C 1179.200 1066.181, 1195.101 1081.948, 1195.836 1082.322 C 1196.571 1082.697, 1197.785 1082.660, 1198.534 1082.241 C 1200.229 1081.292, 1268 1013.972, 1268 1013.237 C 1268 1012.366, 1200.659 944.932, 1198.739 943.882 C 1197.264 943.074, 1191.268 948.590, 1161.739 977.924 M 571.750 988.747 C 578.487 988.920, 589.513 988.920, 596.250 988.747 C 602.987 988.574, 597.475 988.432, 584 988.432 C 570.525 988.432, 565.013 988.574, 571.750 988.747 M 1549.750 988.740 C 1553.188 988.936, 1558.813 988.936, 1562.250 988.740 C 1565.688 988.545, 1562.875 988.385, 1556 988.385 C 1549.125 988.385, 1546.313 988.545, 1549.750 988.740 M 441.750 1011.747 C 447.938 1011.922, 458.063 1011.922, 464.250 1011.747 C 470.438 1011.571, 465.375 1011.428, 453 1011.428 C 440.625 1011.428, 435.563 1011.571, 441.750 1011.747 M 654.292 1011.742 C 658.027 1011.935, 663.877 1011.934, 667.292 1011.739 C 670.706 1011.545, 667.650 1011.387, 660.500 1011.389 C 653.350 1011.390, 650.556 1011.550, 654.292 1011.742 M 921.395 1042.500 C 921.396 1050.200, 921.553 1053.218, 921.743 1049.206 C 921.934 1045.195, 921.932 1038.895, 921.741 1035.206 C 921.549 1031.518, 921.393 1034.800, 921.395 1042.500 M 486.811 1055.748 C 494.681 1055.917, 507.281 1055.917, 514.811 1055.747 C 522.340 1055.578, 515.900 1055.439, 500.500 1055.440 C 485.100 1055.440, 478.940 1055.579, 486.811 1055.748 M 551.818 1055.749 C 564.093 1055.908, 583.893 1055.908, 595.818 1055.749 C 607.743 1055.589, 597.700 1055.459, 573.500 1055.459 C 549.300 1055.460, 539.543 1055.590, 551.818 1055.749 M 1481.750 1059.749 C 1491.787 1059.912, 1508.213 1059.912, 1518.250 1059.749 C 1528.287 1059.585, 1520.075 1059.452, 1500 1059.452 C 1479.925 1059.452, 1471.713 1059.585, 1481.750 1059.749 M 1435.494 1138.006 C 1420.942 1152.590, 1421.263 1151.531, 1429.330 1158.369 L 1433.996 1162.324 1441.451 1154.412 L 1448.906 1146.500 1448.953 1135.750 C 1448.979 1129.838, 1448.881 1125, 1448.736 1125 C 1448.590 1125, 1442.632 1130.853, 1435.494 1138.006 M 602 1136.273 L 602 1146.547 609.995 1154.495 L 617.989 1162.442 623.505 1156.995 L 629.020 1151.548 616.275 1138.774 C 609.264 1131.748, 603.185 1126, 602.764 1126 C 602.344 1126, 602 1130.623, 602 1136.273 M 1475.985 1186.750 L 1463.500 1199.500 1476.250 1187.015 C 1488.093 1175.418, 1489.453 1174, 1488.735 1174 C 1488.589 1174, 1482.852 1179.737, 1475.985 1186.750 M 623.463 1281 C 623.463 1307.675, 623.592 1318.588, 623.749 1305.250 C 623.907 1291.912, 623.907 1270.088, 623.749 1256.750 C 623.592 1243.412, 623.463 1254.325, 623.463 1281 M 1384.407 1280 C 1384.407 1289.075, 1384.559 1292.787, 1384.744 1288.250 C 1384.929 1283.713, 1384.929 1276.287, 1384.744 1271.750 C 1384.559 1267.213, 1384.407 1270.925, 1384.407 1280 M 1376.258 1378.973 C 1348.624 1406.763, 1319.395 1436.119, 1311.303 1444.209 L 1296.590 1458.919 1317.545 1459.209 L 1338.500 1459.500 1383.680 1414.018 C 1413.745 1383.752, 1428.556 1368.170, 1427.952 1367.442 C 1427.453 1366.841, 1426.922 1357.821, 1426.772 1347.397 L 1426.500 1328.446 1376.258 1378.973 M 623.558 1349.641 L 622.833 1369.292 631.230 1377.896 C 671.728 1419.387, 714.487 1461.829, 714.983 1461.027 C 715.337 1460.454, 723.669 1459.931, 734.972 1459.772 L 754.354 1459.500 690.927 1395.926 C 656.042 1360.960, 626.776 1331.821, 625.892 1331.171 C 624.435 1330.101, 624.215 1331.836, 623.558 1349.641 M 1002.385 1428 C 1002.385 1434.875, 1002.545 1437.688, 1002.740 1434.250 C 1002.936 1430.813, 1002.936 1425.188, 1002.740 1421.750 C 1002.545 1418.313, 1002.385 1421.125, 1002.385 1428 M 882.994 1430.506 L 877.541 1436.028 886.768 1445.255 L 895.996 1454.482 901.502 1448.976 L 907.009 1443.469 897.728 1434.227 L 888.447 1424.985 882.994 1430.506 M 1152.998 1434.502 L 1143.557 1443.982 1148.491 1448.991 C 1151.205 1451.746, 1153.892 1453.985, 1154.462 1453.967 C 1155.033 1453.949, 1159.508 1450.143, 1164.408 1445.510 C 1171.228 1439.059, 1173.062 1436.782, 1172.236 1435.792 C 1171.642 1435.082, 1169.195 1432.367, 1166.798 1429.761 L 1162.439 1425.022 1152.998 1434.502 M 1077.449 1470.500 C 1077.449 1489.200, 1077.584 1496.709, 1077.749 1487.186 C 1077.913 1477.663, 1077.913 1462.363, 1077.748 1453.186 C 1077.583 1444.009, 1077.449 1451.800, 1077.449 1470.500 M 943.426 1485.500 C 943.427 1497.600, 943.571 1502.413, 943.747 1496.195 C 943.923 1489.977, 943.922 1480.077, 943.746 1474.195 C 943.569 1468.313, 943.425 1473.400, 943.426 1485.500 M 972.460 1524 C 972.460 1548.475, 972.590 1558.487, 972.749 1546.250 C 972.908 1534.013, 972.908 1513.988, 972.749 1501.750 C 972.590 1489.513, 972.460 1499.525, 972.460 1524 M 1002.392 1509 C 1002.392 1516.425, 1002.549 1519.463, 1002.742 1515.750 C 1002.934 1512.037, 1002.934 1505.963, 1002.742 1502.250 C 1002.549 1498.537, 1002.392 1501.575, 1002.392 1509 M 998.423 1539.500 C 998.424 1551.050, 998.570 1555.638, 998.747 1549.696 C 998.924 1543.753, 998.923 1534.303, 998.745 1528.696 C 998.567 1523.088, 998.422 1527.950, 998.423 1539.500 M 948.131 1631 L 948.184 1670.500 958.548 1678.804 C 964.249 1683.371, 969.128 1687.115, 969.390 1687.124 C 969.653 1687.132, 971.509 1688.687, 973.515 1690.579 C 975.523 1692.473, 977.687 1693.717, 978.331 1693.349 C 978.974 1692.981, 979.185 1693.029, 978.801 1693.455 C 978.028 1694.314, 989.139 1704, 990.896 1704 C 991.503 1704, 992 1704.372, 992 1704.827 C 992 1705.282, 996.388 1709.125, 1001.750 1713.368 C 1007.112 1717.611, 1012.726 1722.171, 1014.225 1723.501 C 1015.723 1724.832, 1018.198 1726.720, 1019.725 1727.697 C 1021.251 1728.673, 1022.950 1730.033, 1023.500 1730.719 C 1024.294 1731.708, 1024.938 1731.711, 1026.625 1730.732 C 1030.363 1728.565, 1046.877 1714.764, 1047.417 1713.357 C 1047.703 1712.610, 1048.538 1712, 1049.273 1712 C 1050.008 1712, 1052.329 1710.425, 1054.430 1708.500 C 1056.532 1706.575, 1058.471 1705, 1058.740 1705 C 1059.412 1705, 1071.196 1694.989, 1072.793 1693.061 C 1073.504 1692.202, 1074.629 1691.480, 1075.293 1691.455 C 1075.957 1691.430, 1076.350 1690.755, 1076.167 1689.955 C 1075.983 1689.155, 1076.155 1688.821, 1076.547 1689.214 C 1077.331 1689.998, 1089 1681.226, 1089 1679.852 C 1089 1679.384, 1089.635 1679, 1090.411 1679 C 1091.187 1679, 1092.875 1677.749, 1094.161 1676.220 C 1095.447 1674.692, 1096.950 1673.314, 1097.500 1673.160 C 1098.050 1673.005, 1099.457 1671.980, 1100.626 1670.881 C 1102.483 1669.137, 1102.724 1667.910, 1102.528 1661.192 C 1102.405 1656.961, 1102.211 1640.112, 1102.097 1623.750 C 1101.983 1607.388, 1101.577 1594.010, 1101.195 1594.022 C 1100.813 1594.034, 1090.453 1604.315, 1078.172 1616.868 L 1055.845 1639.693 1055.930 1660.097 L 1056.015 1680.500 1041.513 1695.250 C 1033.537 1703.362, 1026.634 1710, 1026.174 1710 C 1025.714 1710, 1023.033 1707.638, 1020.216 1704.750 C 1017.398 1701.862, 1010.797 1695.241, 1005.546 1690.035 L 996 1680.570 995.873 1664.035 C 995.804 1654.941, 995.712 1645.768, 995.669 1643.652 C 995.596 1640.005, 994.344 1638.535, 971.835 1615.652 L 948.079 1591.500 948.131 1631" stroke="none" fill="#f4842e" fill-rule="evenodd"/><path d="M 1016 368.811 L 1006.500 376.581 1006.500 385.457 L 1006.500 394.333 1015.500 400.529 L 1024.500 406.724 1024.107 537.612 L 1023.714 668.500 1021.022 669.632 C 1017.518 671.106, 1014 675.633, 1014 678.667 C 1014 688.142, 1024.001 694.066, 1032.010 689.335 C 1039.099 685.147, 1038.491 673.156, 1031.023 669.850 L 1028 668.512 1028 537.487 L 1028 406.462 1037.022 400.094 L 1046.045 393.726 1045.542 385.168 C 1045.245 380.107, 1044.520 376.149, 1043.770 375.481 C 1040.487 372.561, 1026.166 361.002, 1025.853 361.020 C 1025.659 361.031, 1021.225 364.537, 1016 368.811 M 972.369 432.229 C 959.166 445.578, 934.003 471.012, 916.452 488.750 L 884.542 521 871.021 521.006 L 857.500 521.011 825.693 552.494 L 793.885 583.977 754.206 584.239 C 717.331 584.482, 714.503 584.624, 714.190 586.250 C 713.872 587.902, 717.485 588, 778.808 588 L 843.763 588 858.144 573.197 L 872.525 558.394 883.160 561.823 C 891.661 564.565, 894.015 565.738, 894.897 567.673 C 895.504 569.005, 896 570.638, 896 571.304 C 896 571.969, 883.063 585.420, 867.250 601.196 L 838.500 629.879 807.156 630.141 L 775.813 630.404 720.804 685.951 L 665.796 741.499 666.527 774.723 L 667.259 807.946 660.349 815.223 C 651.439 824.605, 621.486 856.445, 613.052 865.500 C 609.465 869.350, 599.740 879.542, 591.439 888.149 L 576.347 903.797 571.025 902.416 C 568.098 901.657, 565.597 900.915, 565.467 900.768 C 565.338 900.621, 563.234 896.506, 560.793 891.625 L 556.354 882.751 589.427 849.279 L 622.500 815.807 623 766.153 C 623.275 738.844, 623.368 707.798, 623.208 697.163 C 622.953 680.359, 622.724 677.984, 621.458 679.035 C 620.208 680.073, 620 689.732, 619.997 746.872 L 619.995 813.500 586.946 846.500 C 568.770 864.650, 553.487 880.229, 552.984 881.119 C 552.318 882.298, 553.441 885.398, 557.111 892.520 L 562.153 902.302 560.057 905.137 C 556.534 909.902, 555.889 912.674, 557.144 917.659 L 558.286 922.193 540.643 939.857 C 530.939 949.572, 523 957.853, 523 958.260 C 523 958.667, 541.592 959, 564.316 959 L 605.631 959 625.066 938.894 C 635.755 927.836, 644.838 917.824, 645.251 916.644 C 645.664 915.465, 648.054 908.080, 650.561 900.233 C 665.941 852.116, 693.823 803.568, 730.528 761 C 771.615 713.349, 831.070 671.071, 889.500 647.957 L 900.500 643.606 921.715 622.053 L 942.930 600.500 942.965 563.513 L 943 526.526 928.750 540.626 L 914.500 554.726 910.793 553.244 C 904.500 550.727, 898.112 553.185, 894.362 559.564 C 893.260 561.440, 892.887 561.383, 882.362 557.725 L 871.500 553.949 856.215 569.475 L 840.929 585 820.465 585 C 809.209 585, 800 584.660, 800 584.244 C 800 583.828, 813.165 570.328, 829.256 554.244 L 858.513 525 872.033 525 L 885.554 525 942.371 468.033 C 973.621 436.700, 999.005 410.516, 998.782 409.845 C 998.558 409.174, 997.925 408.475, 997.375 408.292 C 996.825 408.108, 985.573 418.880, 972.369 432.229 M 1053.345 409.543 C 1053.019 410.392, 1053.072 411.404, 1053.462 411.793 C 1053.852 412.182, 1078.995 437.475, 1109.336 468 L 1164.500 523.500 1179 524 L 1193.500 524.500 1222.500 554 L 1251.500 583.500 1230.533 583.771 L 1209.565 584.042 1194.501 569.001 L 1179.437 553.961 1168.469 557.462 C 1162.436 559.388, 1157.399 560.971, 1157.276 560.982 C 1157.152 560.992, 1156.357 559.658, 1155.509 558.017 C 1152.813 552.804, 1144.145 550.247, 1138.824 553.094 C 1136.997 554.072, 1135.314 552.737, 1123.059 540.594 C 1115.514 533.117, 1109.038 527, 1108.670 527 C 1108.301 527, 1108.023 543.538, 1108.051 563.750 L 1108.101 600.500 1128.801 621.716 L 1149.500 642.932 1163 648.328 C 1212.035 667.928, 1257.181 697.469, 1298.061 736.705 C 1343.812 780.616, 1384.661 845.945, 1401.417 902 C 1403.472 908.875, 1405.457 915.267, 1405.827 916.204 C 1406.197 917.141, 1415.234 927.153, 1425.909 938.454 L 1445.318 959 1486.742 959 C 1513.632 959, 1528.050 958.653, 1527.833 958.010 C 1527.650 957.466, 1519.571 949.028, 1509.879 939.260 C 1495.073 924.337, 1492.386 921.181, 1493.059 919.500 C 1494.784 915.190, 1494.090 909.261, 1491.500 906.182 C 1490.125 904.548, 1489 902.715, 1489 902.108 C 1489 901.501, 1491.250 896.953, 1494 892 C 1496.750 887.047, 1499 882.729, 1499 882.403 C 1499 882.077, 1483.700 866.259, 1465 847.252 L 1431 812.693 1431 745.905 C 1431 683.300, 1430.725 675.941, 1428.472 678.195 C 1428.255 678.412, 1427.819 708.980, 1427.504 746.125 L 1426.931 813.660 1460.844 848.108 L 1494.757 882.556 1489.393 892.528 C 1486.442 898.013, 1484.022 902.187, 1484.014 901.804 C 1484.006 901.421, 1481.689 901.794, 1478.865 902.633 L 1473.730 904.158 1469.144 898.829 C 1466.621 895.898, 1461.590 890.350, 1457.963 886.500 C 1454.337 882.650, 1437.178 864.425, 1419.833 846 C 1402.489 827.575, 1387.346 811.657, 1386.183 810.626 C 1384.088 808.770, 1384.074 808.451, 1384.624 774.626 L 1385.178 740.500 1330.386 685.133 L 1275.594 629.766 1244.304 630.133 L 1213.015 630.500 1184.069 601.568 C 1156.537 574.049, 1155.151 572.486, 1155.694 569.568 C 1156.008 567.881, 1156.583 566.145, 1156.972 565.711 C 1157.360 565.277, 1162.363 563.336, 1168.089 561.399 L 1178.500 557.877 1193.222 572.938 L 1207.944 588 1264.722 587.994 C 1323.703 587.988, 1338.336 587.508, 1337.700 585.599 C 1337.444 584.831, 1325.294 584.421, 1297.292 584.239 L 1257.250 583.978 1226.178 552.489 L 1195.107 521 1181.209 521 L 1167.310 521 1136.389 489.750 C 1119.382 472.563, 1094.242 447.137, 1080.521 433.250 C 1066.800 419.363, 1055.206 408, 1054.756 408 C 1054.306 408, 1053.671 408.694, 1053.345 409.543 M 995.455 445.455 C 992.343 448.566, 992.351 451.075, 995.485 454.799 L 997.969 457.752 998.085 555.376 C 998.198 650.571, 998.248 653, 1000.100 653 C 1001.954 653, 1002 650.611, 1002 555.314 C 1002 457.629, 1002 457.629, 1004.167 455.323 C 1007.084 452.218, 1007.031 447.253, 1004.056 444.844 C 1000.967 442.343, 998.383 442.526, 995.455 445.455 M 1046 454 C 1043.377 456.623, 1043.459 460.795, 1046.189 463.701 C 1048.377 466.031, 1048.377 466.031, 1048.479 559.259 C 1048.574 646.368, 1048.693 652.510, 1050.290 652.817 C 1051.893 653.126, 1052 647.327, 1052 559.861 L 1052 466.575 1054.458 464.538 C 1058.013 461.591, 1058.571 457.996, 1055.984 454.707 C 1053.392 451.411, 1048.906 451.094, 1046 454 M 971.310 466.081 C 966.624 467.815, 965.659 473.853, 969.500 477.412 L 972 479.729 972 546.121 L 972 612.513 943.250 641.151 C 920.268 664.044, 913.698 670.043, 910.500 671.053 C 902.174 673.683, 882.055 682.411, 868.719 689.178 C 861.103 693.042, 854.748 696.046, 854.599 695.852 C 854.449 695.658, 852.837 692.800, 851.017 689.500 C 849.197 686.200, 846.831 682.029, 845.760 680.230 L 843.812 676.961 838.156 680.130 C 826.891 686.444, 798.238 706.001, 786.856 715.145 C 747.559 746.716, 708.927 792.756, 685.878 835.488 L 681.950 842.771 691.225 847.526 C 696.326 850.141, 700.676 852.431, 700.891 852.614 C 701.106 852.798, 698.911 857.797, 696.015 863.724 C 687.417 881.318, 677.714 907.038, 672.900 925 C 671.833 928.980, 668.508 932.704, 644.103 957.250 L 616.513 985 546.585 985 C 483.741 985, 476.477 984.837, 474.881 983.392 C 473.192 981.864, 473.251 981.660, 476.052 979.303 C 477.673 977.939, 479 976.023, 479 975.046 C 479 972.312, 475.114 968, 472.650 968 C 466.215 968, 463.561 975.835, 468.459 980.374 C 469.811 981.628, 471.375 983.856, 471.934 985.326 L 472.950 988 545.725 987.991 L 618.500 987.982 643.751 963.241 C 657.639 949.633, 669.001 938.955, 669.001 939.511 C 669 940.067, 667.900 945.917, 666.556 952.511 C 665.212 959.105, 663.405 970.575, 662.541 978 C 659.928 1000.458, 659.964 999, 662.023 999 C 663.522 999, 663.960 997.952, 664.425 993.250 C 667.582 961.359, 673 934.989, 681.941 908 C 699.866 853.891, 728.908 806.721, 769.910 765.118 C 814.249 720.128, 871.376 685.821, 931.500 668.075 C 942.285 664.892, 953.134 662.536, 980.750 657.382 C 983.418 656.884, 983.801 654, 981.198 654 C 976.838 654, 950.385 659.290, 938.215 662.596 C 930.883 664.587, 924.690 666.023, 924.454 665.787 C 924.218 665.551, 935.719 653.777, 950.012 639.622 L 976 613.886 976 546.566 C 976 486.894, 976.177 479.098, 977.555 477.955 C 980.482 475.525, 981.248 473.014, 979.989 469.974 C 978.648 466.736, 974.531 464.889, 971.310 466.081 M 1071.455 467.455 C 1068.339 470.570, 1068.351 473.075, 1071.500 476.818 L 1074 479.789 1074 546.156 L 1074 612.523 1100.202 638.726 C 1114.613 653.138, 1126.164 665.169, 1125.871 665.462 C 1125.578 665.756, 1121.723 664.914, 1117.304 663.591 C 1108.021 660.812, 1083.163 655.481, 1074.750 654.464 C 1069.836 653.871, 1069 654.005, 1069 655.385 C 1069 656.273, 1069.195 657, 1069.433 657 C 1071.867 657, 1099.170 662.615, 1108.500 665.034 C 1137.523 672.559, 1156.233 679.546, 1182.184 692.548 C 1204.117 703.538, 1218.243 712.247, 1237.563 726.692 C 1307.812 779.217, 1356.291 851.678, 1377.355 935.639 C 1381.706 952.983, 1387 984.318, 1387 992.731 C 1387 997.797, 1387.790 1000, 1389.607 1000 C 1390.528 1000, 1391 998.832, 1391 996.551 C 1391 991.918, 1388.465 972.847, 1385.917 958.319 C 1381.935 935.609, 1379.377 934.992, 1407.401 963.500 L 1431.977 988.500 1505.598 988.548 L 1579.219 988.596 1580.815 986.048 C 1581.694 984.647, 1583.669 982.022, 1585.206 980.215 C 1588.510 976.330, 1588.734 973.734, 1586 971 C 1583.122 968.122, 1578.608 968.411, 1576.073 971.635 C 1573.385 975.051, 1573.460 976.551, 1576.465 979.556 C 1582.079 985.169, 1584.277 985, 1505.824 985 L 1433.861 985 1406.951 957.750 C 1381.449 931.926, 1379.959 930.212, 1378.492 925 C 1372.772 904.688, 1366.003 886.551, 1356.627 866.416 C 1353.532 859.771, 1351.004 853.921, 1351.010 853.416 C 1351.015 852.912, 1355.065 850.336, 1360.010 847.691 C 1364.954 845.046, 1369 842.568, 1369 842.184 C 1369 840.491, 1356.877 820.170, 1347.319 805.841 C 1314.738 756.997, 1270.357 714.398, 1221.295 684.877 C 1210.629 678.459, 1207.588 677.034, 1206.880 678.121 C 1206.387 678.880, 1203.882 683.100, 1201.314 687.500 C 1198.745 691.900, 1196.555 695.631, 1196.447 695.792 C 1196.338 695.952, 1193.491 694.467, 1190.120 692.491 C 1180.836 687.050, 1164.139 679.481, 1149.045 673.872 L 1135.500 668.838 1106.750 640.176 L 1078 611.513 1078 545.378 C 1078 480.401, 1078.035 479.220, 1079.997 477.872 C 1081.095 477.117, 1082.271 475.067, 1082.609 473.316 C 1083.105 470.748, 1082.727 469.636, 1080.657 467.566 C 1077.435 464.344, 1074.600 464.310, 1071.455 467.455 M 886.576 601.924 L 877.694 610.847 883.046 616.455 L 888.399 622.064 897.694 612.807 L 906.988 603.551 901.778 598.276 C 898.913 595.374, 896.319 593, 896.013 593 C 895.708 593, 891.461 597.016, 886.576 601.924 M 1150.250 597.875 C 1147.362 600.506, 1145 603.083, 1145 603.602 C 1145 604.120, 1148.788 608.313, 1153.419 612.919 L 1161.837 621.294 1167.419 616.525 C 1170.488 613.903, 1173 611.552, 1173 611.300 C 1173 610.632, 1156.590 593.024, 1156 593.060 C 1155.725 593.077, 1153.138 595.244, 1150.250 597.875 M 720.127 641.250 C 716.771 644.688, 714.019 648.047, 714.012 648.715 C 713.993 650.660, 717.735 652.212, 719.792 651.111 C 722.135 649.857, 731 640.368, 731 639.114 C 731 637.936, 728.176 635, 727.043 635 C 726.596 635, 723.484 637.813, 720.127 641.250 M 1321.463 637.116 C 1320.930 638.797, 1321.988 640.441, 1326.615 645.116 C 1329.817 648.352, 1332.944 651, 1333.564 651 C 1334.183 651, 1335.486 650.120, 1336.459 649.045 C 1338.174 647.151, 1338.050 646.904, 1332.462 641.045 C 1326.267 634.551, 1322.684 633.271, 1321.463 637.116 M 1338.750 652.080 C 1336.110 653.617, 1336.624 655.824, 1340.529 659.729 C 1343.948 663.148, 1344.119 663.202, 1346.029 661.474 C 1348.630 659.120, 1348.517 657.768, 1345.411 654.077 C 1342.652 650.797, 1341.530 650.461, 1338.750 652.080 M 706.144 655.489 C 702.650 659.469, 702.279 661.157, 704.495 662.996 C 705.699 663.995, 706.474 663.919, 708.481 662.604 C 712.304 660.099, 714.575 656.135, 713.324 654.149 C 711.565 651.356, 709.422 651.756, 706.144 655.489 M 1349.750 663.112 L 1347.001 665.166 1354.663 673.583 C 1358.877 678.212, 1363.082 682, 1364.007 682 C 1364.933 682, 1366.501 681.104, 1367.491 680.010 C 1369.252 678.064, 1369.105 677.830, 1360.896 669.539 L 1352.500 661.058 1349.750 663.112 M 690.169 670.393 C 686.226 674.460, 683 678.215, 683 678.738 C 683 679.925, 686.325 683, 687.608 683 C 688.525 683, 699.235 672.343, 701.948 668.731 C 703.076 667.229, 703.006 666.664, 701.483 664.981 C 700.497 663.892, 699.161 663, 698.514 663 C 697.867 663, 694.112 666.327, 690.169 670.393 M 672.065 688.507 C 668.179 692.259, 665 695.897, 665 696.593 C 665 698.100, 667.727 701, 669.146 701 C 670.703 701, 681.868 689.991, 682.577 687.756 C 682.992 686.451, 682.507 685.063, 681.170 683.726 C 679.131 681.686, 679.131 681.686, 672.065 688.507 M 1369.655 683.829 C 1368.745 684.835, 1368 685.953, 1368 686.315 C 1368 687.619, 1380.933 700, 1382.295 700 C 1383.062 700, 1384.519 699.084, 1385.533 697.964 C 1387.347 695.959, 1387.269 695.822, 1380.464 688.964 C 1376.663 685.134, 1373.049 682, 1372.432 682 C 1371.815 682, 1370.565 682.823, 1369.655 683.829 M 751.038 727.142 C 729.885 748.514, 711.820 766, 710.895 766 C 708.502 766, 707.624 769.053, 709.483 770.911 C 710.891 772.320, 714.672 768.815, 749.270 734.026 C 784.866 698.232, 787.741 695.581, 791 695.542 C 793.878 695.507, 794.558 695.090, 794.827 693.195 C 795.217 690.442, 793.389 687.945, 791.128 688.142 C 790.232 688.220, 772.192 705.770, 751.038 727.142 M 1257.200 689.200 C 1253.912 692.488, 1257.783 698.257, 1261.826 696.093 C 1263.382 695.260, 1269.245 700.717, 1301.545 733.058 C 1322.386 753.926, 1340.213 771, 1341.160 771 C 1342.107 771, 1343.172 770.530, 1343.527 769.956 C 1344.284 768.732, 1342.269 766, 1340.609 766 C 1339.768 766, 1273.376 700.333, 1263.179 689.415 C 1261.562 687.685, 1258.814 687.586, 1257.200 689.200 M 563.068 739.596 C 561.231 741.142, 559.089 743.937, 558.307 745.807 C 555.812 751.778, 559 759.515, 564.974 761.989 L 568 763.243 568 785.198 L 568 807.154 564.910 810.244 C 562.332 812.822, 561.894 813.927, 562.266 816.917 C 562.702 820.423, 562.284 820.919, 542.852 840 C 524.431 858.089, 522.996 859.753, 523.037 863 C 523.078 866.289, 521.043 868.515, 489.212 900 C 470.584 918.425, 454.761 934.288, 454.049 935.250 C 452.924 936.772, 453.028 937, 454.848 937 C 456.258 937, 468.380 925.693, 491.971 902.373 C 525.304 869.421, 527 867.568, 527 864.090 C 527 860.651, 528.150 859.327, 546.418 841.719 C 563.843 824.924, 566.075 823.093, 568.168 823.874 C 572.930 825.652, 577.912 821.872, 577.968 816.439 C 577.999 813.483, 574.981 809, 572.961 809 C 572.374 809, 572 800.074, 572 786.079 L 572 763.159 574.958 762.509 C 576.585 762.152, 579.335 760.244, 581.069 758.269 C 583.954 754.983, 584.183 754.220, 583.773 749.271 C 583.144 741.688, 579.326 737.857, 571.773 737.231 C 567.010 736.836, 566.033 737.102, 563.068 739.596 M 567.388 740.942 C 564.069 742.343, 561 746.949, 561 750.529 C 561 755.290, 565.668 760, 570.385 760 C 575.846 760, 580.455 755.470, 580.455 750.102 C 580.455 743.357, 573.395 738.408, 567.388 740.942 M 1479.364 754.148 C 1477.160 755.238, 1475 758.938, 1475 761.624 C 1475 762.465, 1476.350 764.504, 1478 766.154 L 1481 769.154 1481 788.676 L 1481 808.198 1478 811 C 1474.651 814.128, 1474.272 816.692, 1476.518 821.035 C 1478.185 824.258, 1481.576 825.574, 1485.605 824.563 C 1487.964 823.971, 1489.996 825.726, 1507.105 843.133 C 1521.779 858.063, 1526 862.933, 1526 864.936 C 1526 866.976, 1530.966 872.433, 1549.750 891.030 C 1597.842 938.644, 1600.964 941.489, 1601.018 937.750 C 1601.028 937.063, 1584.826 920.525, 1565.014 901 C 1533.834 870.272, 1528.992 865.105, 1528.996 862.558 C 1528.999 860.074, 1526.049 856.652, 1510 840.526 C 1491.931 822.370, 1491 821.246, 1491 817.585 C 1491 814.463, 1490.322 813.097, 1487.407 810.347 L 1483.814 806.958 1484.157 788.069 C 1484.500 769.179, 1484.500 769.179, 1487.250 767.017 C 1490.569 764.407, 1491.109 758.310, 1488.250 755.733 C 1485.857 753.576, 1481.935 752.876, 1479.364 754.148 M 1037.679 881.250 L 922.076 997.500 922.038 885.750 L 922 774 870.500 774 L 819 774 819 1020.509 L 819 1267.018 870.250 1266.759 L 921.500 1266.500 921.500 1147.750 C 921.500 1082.437, 921.725 1028.991, 922 1028.980 C 922.275 1028.969, 932.321 1038.981, 944.323 1051.230 C 978.801 1086.413, 1173.196 1281, 1173.866 1281 C 1174.199 1281, 1190.549 1264.912, 1210.200 1245.250 L 1245.929 1209.500 1147.392 1110.926 L 1048.856 1012.352 1136.919 923.926 L 1224.982 835.500 1189.746 800.250 C 1170.367 780.862, 1154.234 765, 1153.896 765 C 1153.558 765, 1101.260 817.313, 1037.679 881.250 M 1344.750 773.080 C 1342.740 774.251, 1342.401 779.001, 1344.200 780.800 C 1346.078 782.678, 1349.739 782.210, 1351.368 779.885 C 1352.994 777.563, 1352.563 775.179, 1350.169 773.250 C 1348.315 771.756, 1347.089 771.718, 1344.750 773.080 M 700.200 774.200 C 697.450 776.950, 700.169 783.508, 703.765 782.800 C 704.603 782.635, 706.169 781.319, 707.246 779.875 C 708.839 777.739, 708.992 776.854, 708.067 775.125 C 706.796 772.750, 702.191 772.209, 700.200 774.200 M 609.611 890.888 L 601.777 898.768 601.922 909.084 C 602.002 914.758, 602.195 919.528, 602.351 919.685 C 602.934 920.268, 628 895.784, 628 894.631 C 628 893.972, 625.625 891.086, 622.723 888.220 L 617.445 883.008 609.611 890.888 M 1427.991 888.509 L 1422.539 894.030 1435.770 907.260 L 1449 920.491 1449 909.472 L 1449 898.453 1441.222 890.721 L 1433.444 882.988 1427.991 888.509 M 1578.234 891.219 C 1577.305 892.338, 1579.424 894.945, 1589.078 904.555 C 1598.022 913.458, 1600.954 916.987, 1600.590 918.412 C 1600.076 920.428, 1601.546 923.997, 1603.400 925.235 C 1607.207 927.777, 1613 924.535, 1613 919.862 C 1613 915.854, 1610.692 913.600, 1606.586 913.600 C 1603.254 913.600, 1601.919 912.571, 1591.163 901.714 C 1581.571 892.031, 1579.174 890.085, 1578.234 891.219 M 459.500 903 C 450.734 911.793, 447.970 914, 445.722 914 C 442.637 914, 438 917.903, 438 920.500 C 438 921.375, 439.148 923.239, 440.550 924.641 C 444.921 929.012, 451 926.046, 451 919.543 C 451 916.953, 452.807 914.665, 462.447 905.053 C 473.062 894.468, 474.807 892, 471.674 892 C 471.010 892, 465.531 896.950, 459.500 903 M 631.315 982.464 C 625.826 984.851, 623.375 992.235, 626.561 996.783 C 632.181 1004.808, 644.170 1002.357, 645.587 992.893 C 646.209 988.745, 643.201 983.407, 639.434 981.975 C 636.143 980.724, 635.182 980.782, 631.315 982.464 M 1409.775 983.559 C 1400.925 988.361, 1404.790 1002, 1415 1002 C 1425.221 1002, 1428.811 988.864, 1420.010 983.665 C 1416.573 981.635, 1413.382 981.602, 1409.775 983.559 M 630.073 987.635 C 628.933 989.084, 628 990.823, 628 991.500 C 628 992.177, 628.933 993.916, 630.073 995.365 C 633.968 1000.317, 642 997.979, 642 991.894 C 642 985.175, 634.199 982.389, 630.073 987.635 M 1412.851 986.213 C 1409.466 987.346, 1407.380 991.972, 1408.939 994.886 C 1412.461 1001.468, 1421.004 999.553, 1421.215 992.135 C 1421.363 986.946, 1417.927 984.513, 1412.851 986.213 M 449.571 990.571 C 447.446 992.697, 447.594 995.323, 449.960 997.464 C 454.464 1001.540, 460.540 995.464, 456.464 990.960 C 454.323 988.594, 451.697 988.446, 449.571 990.571 M 1595.200 991.200 C 1593.560 992.840, 1593.690 996.498, 1595.440 997.950 C 1596.231 998.607, 1598.144 998.999, 1599.690 998.822 C 1604.815 998.235, 1603.777 990, 1598.578 990 C 1597.380 990, 1595.860 990.540, 1595.200 991.200 M 403.325 994.936 C 394.272 995.561, 394.650 995.264, 385.219 1009.129 L 382.070 1013.758 388.222 1022.629 C 391.606 1027.508, 394.852 1031.831, 395.437 1032.235 C 396.022 1032.639, 400.587 1032.976, 405.582 1032.985 L 414.664 1033 420.891 1024 L 427.117 1015 551.545 1015 L 675.973 1015 677.381 1018.369 C 679.211 1022.749, 682.536 1025, 687.175 1025 C 694.351 1025, 699 1020.675, 699 1014 C 699 1007.930, 693.191 1002, 687.247 1002 C 684.416 1002, 678.711 1006.137, 677.195 1009.287 L 675.891 1012 553.695 1011.882 C 486.488 1011.817, 430.282 1011.479, 428.793 1011.132 C 426.900 1010.690, 424.271 1008.018, 420.053 1002.250 C 416.735 997.712, 413.453 994.084, 412.760 994.186 C 412.067 994.289, 407.821 994.626, 403.325 994.936 M 1634.844 996.750 C 1634.037 997.712, 1631.439 1001.538, 1629.071 1005.250 L 1624.765 1012 1499.408 1012 L 1374.051 1012 1372.531 1009.061 C 1371.695 1007.444, 1370.009 1005.419, 1368.783 1004.561 C 1366.169 1002.730, 1360.146 1002.521, 1356.595 1004.139 C 1353.891 1005.371, 1351 1010.466, 1351 1014 C 1351 1020.719, 1357.953 1026.828, 1364.071 1025.484 C 1368.032 1024.614, 1372.623 1020.637, 1373.445 1017.363 C 1374.101 1014.751, 1374.185 1014.728, 1380.804 1015.353 C 1384.487 1015.701, 1440.832 1015.989, 1506.015 1015.993 L 1624.530 1016 1629.884 1024.500 L 1635.237 1033 1645.539 1033 L 1655.840 1033 1662.420 1024.035 C 1666.039 1019.105, 1669 1014.829, 1669 1014.535 C 1669 1014.240, 1666.040 1009.724, 1662.423 1004.500 L 1655.845 995 1646.078 995 C 1638 995, 1636.056 995.303, 1634.844 996.750 M 660.395 1042.250 C 661.341 1057.902, 663.747 1077.240, 666.585 1092 C 667.907 1098.875, 668.981 1104.950, 668.970 1105.500 C 668.960 1106.050, 657.782 1095.126, 644.130 1081.225 L 619.309 1055.949 545.905 1055.967 C 479.369 1055.983, 472.406 1056.136, 471.500 1057.603 C 470.950 1058.493, 469.215 1061.203, 467.645 1063.626 C 465.644 1066.714, 464.972 1068.753, 465.397 1070.446 C 467.245 1077.808, 475.764 1077.915, 478.371 1070.609 C 479.174 1068.358, 476.606 1064, 474.477 1064 C 472.696 1064, 472.540 1061.860, 474.200 1060.200 C 475.111 1059.289, 492.492 1059, 546.315 1059 L 617.231 1059 644.365 1086.631 L 671.500 1114.263 675.321 1127.352 C 680.514 1145.138, 686.880 1161.740, 695.010 1178.695 L 701.816 1192.891 692.408 1198.103 C 687.234 1200.969, 683 1203.658, 683 1204.078 C 683 1205.807, 695.005 1225.556, 705.295 1240.754 C 739.764 1291.663, 781.178 1330.864, 834.926 1363.455 L 843.988 1368.950 846.744 1364.014 C 848.260 1361.299, 850.731 1356.822, 852.235 1354.065 L 854.971 1349.052 862.235 1353.074 C 876.050 1360.724, 901.599 1372.062, 911.830 1375.085 C 916.272 1376.398, 918.375 1378.417, 961.769 1423.053 L 973 1434.605 973 1500.921 L 973 1567.236 970 1570.653 C 966.358 1574.801, 966.220 1577.310, 969.455 1580.545 C 972.453 1583.544, 974.905 1583.649, 978.365 1580.927 C 981.790 1578.234, 981.845 1574.143, 978.500 1571 L 976 1568.651 975.960 1500.576 L 975.921 1432.500 950.961 1406.500 C 937.233 1392.200, 926.386 1380.372, 926.857 1380.215 C 927.328 1380.058, 932.390 1381.272, 938.106 1382.914 C 950.771 1386.551, 959.522 1388.505, 972 1390.485 C 983.731 1392.346, 983 1392.370, 983 1390.129 C 983 1388.622, 981.979 1388.130, 977.750 1387.601 C 959.516 1385.319, 923.020 1375.789, 904.283 1368.418 C 882.071 1359.679, 858.629 1347.747, 837 1334.172 C 784.535 1301.243, 739.022 1253.183, 709.938 1200 C 682.482 1149.795, 666.897 1096.842, 664.319 1045 C 663.739 1033.349, 663.132 1031.059, 660.608 1031.015 C 660.097 1031.007, 660.006 1035.811, 660.395 1042.250 M 1387.584 1041.750 C 1384.244 1093.911, 1372.546 1137.172, 1348.442 1186.500 C 1312.953 1259.131, 1247.184 1323.157, 1172.500 1357.781 C 1143.461 1371.244, 1110.390 1381.777, 1082.500 1386.446 C 1077 1387.367, 1071.487 1388.327, 1070.250 1388.579 C 1067.271 1389.187, 1067.300 1392, 1070.285 1392 C 1076.153 1392, 1115.077 1383.568, 1123.500 1380.472 C 1124.600 1380.068, 1113.912 1391.387, 1099.750 1405.625 L 1074 1431.514 1074 1499.712 L 1074 1567.909 1071.438 1570.471 C 1068.103 1573.806, 1068.404 1578.487, 1072.130 1581.257 C 1079.058 1586.406, 1085.859 1575.974, 1079.481 1569.982 L 1076.961 1567.615 1077.021 1500.704 L 1077.082 1433.794 1105.291 1405.494 C 1133.500 1377.193, 1133.500 1377.193, 1140.500 1374.953 C 1151.719 1371.361, 1176.924 1360.379, 1186.346 1354.976 C 1191.119 1352.239, 1195.398 1350, 1195.855 1350 C 1196.312 1350, 1199.054 1354.275, 1201.948 1359.500 C 1204.843 1364.725, 1207.400 1369, 1207.630 1369 C 1208.358 1369, 1220.994 1361.017, 1235.500 1351.393 C 1286.509 1317.551, 1333.982 1266.122, 1364.558 1211.582 C 1367 1207.227, 1368.885 1203.581, 1368.749 1203.479 C 1368.612 1203.378, 1364.569 1201.170, 1359.764 1198.574 C 1354.958 1195.977, 1350.799 1193.485, 1350.521 1193.034 C 1350.243 1192.584, 1353.116 1185.530, 1356.906 1177.358 C 1364.850 1160.228, 1372.753 1139.412, 1377.115 1124.133 L 1380.150 1113.500 1407.318 1086.250 L 1434.486 1059 1505.775 1059 C 1568.098 1059, 1577.135 1059.188, 1577.636 1060.494 C 1577.952 1061.316, 1578.641 1061.722, 1579.168 1061.396 C 1579.695 1061.071, 1580.998 1061.593, 1582.063 1062.557 C 1584.077 1064.379, 1584.678 1067, 1583.082 1067 C 1582.577 1067, 1581.505 1067.253, 1580.701 1067.561 C 1579.717 1067.939, 1578.889 1067.121, 1578.171 1065.061 C 1576.848 1061.265, 1576.438 1061.253, 1574.526 1064.950 C 1571.351 1071.089, 1573.982 1077, 1579.889 1077 C 1584.094 1077, 1587.036 1074.156, 1587.658 1069.490 C 1588.129 1065.964, 1587.744 1064.949, 1584.345 1060.754 L 1580.500 1056.008 1506.310 1056.004 L 1432.120 1056 1407.397 1081.004 C 1393.799 1094.756, 1382.560 1105.893, 1382.420 1105.753 C 1382.280 1105.614, 1383.236 1100.231, 1384.544 1093.792 C 1387.280 1080.330, 1389.675 1062.500, 1390.496 1049.500 C 1390.808 1044.550, 1391.290 1038.362, 1391.566 1035.750 C 1392.008 1031.575, 1391.839 1031, 1390.171 1031 C 1388.467 1031, 1388.202 1032.101, 1387.584 1041.750 M 448.667 1041.065 C 445.755 1045.222, 449.890 1050.282, 454.488 1048.188 C 459.088 1046.092, 457.553 1039, 452.500 1039 C 451.187 1039, 449.463 1039.929, 448.667 1041.065 M 1597.223 1040.557 C 1596 1041.413, 1595 1043.158, 1595 1044.434 C 1595 1049.776, 1602.673 1050.759, 1604.461 1045.645 C 1605.320 1043.191, 1605.131 1042.525, 1603.119 1040.895 C 1600.287 1038.602, 1600.033 1038.588, 1597.223 1040.557 M 633.284 1042.683 C 632.065 1042.929, 629.928 1044.485, 628.534 1046.142 C 620.030 1056.249, 633.872 1069.282, 643.202 1059.952 C 645.935 1057.219, 646.196 1056.432, 645.734 1052.335 C 644.946 1045.345, 639.814 1041.366, 633.284 1042.683 M 1408.314 1044.899 C 1404.608 1047.218, 1403 1049.817, 1403 1053.484 C 1403 1062.908, 1414.520 1067.634, 1421.202 1060.952 C 1423.935 1058.219, 1424.196 1057.432, 1423.734 1053.335 C 1422.790 1044.956, 1415.017 1040.703, 1408.314 1044.899 M 631 1048 C 626.830 1052.170, 629.659 1059, 635.557 1059 C 640.183 1059, 643.420 1055.817, 642.509 1052.163 C 641.006 1046.141, 635.024 1043.976, 631 1048 M 1408.655 1048.829 C 1407.745 1049.835, 1407 1052.052, 1407 1053.756 C 1407 1059.784, 1414.534 1062.771, 1418.917 1058.482 C 1420.901 1056.540, 1420.682 1051.411, 1418.512 1049.013 C 1416.198 1046.457, 1410.891 1046.357, 1408.655 1048.829 M 540.266 1106.026 L 558.708 1125.052 557.698 1128.836 C 556.442 1133.542, 557.256 1136.962, 560.567 1140.898 L 563.135 1143.950 559.416 1151.028 C 557.091 1155.452, 554.674 1158.634, 552.970 1159.516 C 548.051 1162.059, 547.600 1167.284, 551.939 1171.441 C 554.703 1174.090, 556.469 1174.391, 560.500 1172.905 C 561.050 1172.702, 574.652 1186.028, 590.727 1202.518 L 619.953 1232.500 619.977 1299.691 C 619.999 1364.265, 620.241 1370.093, 622.790 1367.543 C 623.151 1367.182, 623.332 1336.200, 623.192 1298.693 L 622.936 1230.500 613.623 1221 C 574.508 1181.100, 564.239 1169.863, 563.666 1166.327 C 563.347 1164.361, 562.313 1161.898, 561.369 1160.855 C 559.738 1159.053, 559.796 1158.647, 562.538 1152.729 C 566.161 1144.907, 566.829 1143.997, 568.483 1144.632 C 569.218 1144.914, 571.188 1144.437, 572.860 1143.572 C 574.532 1142.708, 576.116 1142, 576.380 1142 C 576.898 1142, 649.844 1219.899, 662.663 1234.141 L 666.825 1238.766 666.317 1272.133 L 665.808 1305.500 720.987 1361.250 L 776.167 1417 807.341 1417 L 838.516 1417 861.520 1440.250 C 896.839 1475.947, 896.363 1475.416, 895.629 1478.341 C 894.632 1482.313, 892.914 1483.397, 882.095 1486.872 L 871.944 1490.132 857.367 1475.066 L 842.791 1460 778.822 1460 C 718.438 1460, 714.872 1460.098, 715.190 1461.750 C 715.503 1463.375, 718.259 1463.519, 753.679 1463.762 L 791.831 1464.024 828.929 1501.321 L 866.026 1538.619 880.263 1538.202 L 894.500 1537.785 945.236 1588.846 C 984.804 1628.667, 995.824 1640.295, 995.297 1641.669 C 994.742 1643.115, 995.033 1643.047, 996.918 1641.291 C 998.182 1640.113, 999.055 1638.675, 998.858 1638.096 C 998.661 1637.516, 975.588 1614.082, 947.584 1586.021 L 896.667 1535 882.294 1535 L 867.920 1535 832.710 1499.498 L 797.500 1463.996 819.330 1463.998 L 841.160 1464 855.860 1479.156 L 870.561 1494.312 881.984 1490.505 C 892.623 1486.960, 893.479 1486.820, 894.454 1488.458 C 898.789 1495.745, 903.832 1498.046, 910.500 1495.781 L 914.500 1494.421 928.414 1507.713 C 936.067 1515.024, 942.440 1520.891, 942.576 1520.752 C 942.712 1520.614, 942.976 1503.745, 943.162 1483.266 L 943.500 1446.032 931.972 1434.266 C 925.632 1427.795, 916.407 1418.246, 911.472 1413.046 C 902.500 1403.593, 902.500 1403.593, 888 1397.455 C 820.456 1368.866, 760.081 1323.201, 717.494 1268.491 C 687.125 1229.477, 664.689 1188.240, 651.068 1146.398 L 645.500 1129.295 625.501 1108.148 L 605.502 1087 563.662 1087 L 521.823 1087 540.266 1106.026 M 1445.371 1087.833 C 1444.832 1088.200, 1435.625 1097.725, 1424.912 1109 C 1405.432 1129.500, 1405.432 1129.500, 1403.552 1136.500 C 1395.486 1166.525, 1375.668 1208.535, 1354.760 1239.927 C 1308.016 1310.111, 1241.992 1364.520, 1163 1397.956 L 1147.500 1404.517 1127.238 1425.052 L 1106.976 1445.587 1107.238 1483.172 L 1107.500 1520.758 1121.903 1507.058 L 1136.307 1493.358 1140.603 1494.903 C 1144.678 1496.368, 1145.130 1496.335, 1149.406 1494.258 C 1152.161 1492.920, 1154.543 1490.850, 1155.532 1488.937 C 1156.651 1486.773, 1157.669 1485.972, 1158.826 1486.343 C 1159.747 1486.639, 1164.459 1488.257, 1169.298 1489.940 C 1174.137 1491.623, 1178.544 1493, 1179.091 1493 C 1179.638 1493, 1186.703 1486.279, 1194.793 1478.064 L 1209.500 1463.128 1231.780 1462.723 C 1244.035 1462.500, 1253.935 1462.689, 1253.780 1463.143 C 1253.626 1463.596, 1237.975 1479.558, 1219 1498.613 L 1184.500 1533.259 1169.908 1533.059 L 1155.317 1532.860 1103.704 1585.180 C 1058.203 1631.305, 1052.266 1637.675, 1053.562 1638.981 C 1054.859 1640.287, 1057.840 1637.608, 1078.767 1616.335 C 1091.820 1603.066, 1114.757 1579.787, 1129.738 1564.605 L 1156.975 1537 1171.759 1537 L 1186.542 1537 1218.021 1505.440 C 1235.335 1488.082, 1252.200 1471.311, 1255.500 1468.172 L 1261.500 1462.463 1298.500 1462.129 C 1318.850 1461.946, 1335.838 1461.590, 1336.250 1461.339 C 1339.589 1459.304, 1331.330 1459, 1272.762 1459 L 1208.523 1459 1193.378 1474.121 L 1178.233 1489.243 1168.600 1486.033 C 1158.938 1482.814, 1156.931 1481.607, 1154.886 1477.786 C 1153.890 1475.925, 1156.591 1472.921, 1183.136 1446.364 L 1212.487 1417 1243.653 1417 L 1274.818 1417 1329.675 1361.566 L 1384.532 1306.131 1384.282 1272.526 L 1384.032 1238.921 1388.266 1234.211 C 1410.574 1209.396, 1474.133 1142, 1475.228 1142 C 1475.725 1142, 1477.095 1142.516, 1478.273 1143.146 C 1479.451 1143.777, 1481.587 1144.259, 1483.018 1144.219 C 1485.324 1144.153, 1486.142 1145.193, 1490.178 1153.321 L 1494.735 1162.496 1460.886 1196.806 L 1427.036 1231.115 1427.268 1299.307 C 1427.472 1359.153, 1427.684 1367.500, 1429 1367.500 C 1430.314 1367.500, 1430.562 1359.091, 1431 1299.822 L 1431.500 1232.143 1447.924 1215.322 C 1456.957 1206.070, 1472.183 1190.582, 1481.760 1180.904 L 1499.172 1163.307 1494.205 1153.404 L 1489.237 1143.500 1491.687 1140 C 1493.787 1137, 1494.078 1135.642, 1493.723 1130.500 L 1493.309 1124.500 1510.655 1106.379 C 1520.195 1096.413, 1528 1087.958, 1528 1087.591 C 1528 1086.720, 1446.655 1086.958, 1445.371 1087.833 M 455.430 1099.113 C 455.028 1099.763, 463.471 1109.002, 475.763 1121.363 C 487.325 1132.988, 502.898 1148.800, 510.370 1156.500 L 523.956 1170.500 523.978 1177.969 L 524 1185.438 544.037 1205.562 L 564.074 1225.686 563.408 1229.853 C 562.793 1233.699, 563.008 1234.272, 566.213 1237.294 L 569.684 1240.568 569.208 1268.666 L 568.731 1296.764 564.856 1297.925 C 557.767 1300.049, 551.950 1308.294, 552.022 1316.116 C 552.053 1319.441, 555.272 1326.073, 558.132 1328.702 C 561.333 1331.645, 567.186 1334.005, 571.218 1333.978 C 578.286 1333.931, 586.431 1327.897, 588.467 1321.200 C 589.655 1317.292, 589.242 1310.368, 587.634 1307.260 C 585.523 1303.176, 579.771 1298.328, 576.074 1297.516 L 573 1296.841 573 1268.389 C 573 1243.717, 573.204 1239.859, 574.537 1239.347 C 576.445 1238.615, 579 1233.820, 579 1230.973 C 579 1229.803, 577.632 1227.478, 575.960 1225.806 C 573.566 1223.412, 572.329 1222.884, 570.140 1223.322 C 567.605 1223.829, 565.579 1222.096, 547.180 1203.680 L 527 1183.482 526.965 1175.991 L 526.930 1168.500 517.356 1158.500 C 499.584 1139.938, 457.671 1098, 456.892 1098 C 456.466 1098, 455.809 1098.501, 455.430 1099.113 M 1559.108 1133.688 L 1524 1169.376 1524 1176.929 L 1524 1184.482 1504.347 1204.153 C 1485.900 1222.618, 1484.504 1223.794, 1481.597 1223.322 C 1477.873 1222.718, 1473.548 1225.681, 1472.591 1229.493 C 1471.883 1232.313, 1474.242 1237.772, 1476.552 1238.658 C 1477.770 1239.126, 1478 1243.801, 1478 1268.029 L 1478 1296.845 1474.562 1297.979 C 1464.394 1301.335, 1459.136 1313.210, 1463.351 1323.298 C 1465.127 1327.548, 1471.017 1332.635, 1475.642 1333.912 C 1482.899 1335.915, 1493.070 1331.632, 1496.415 1325.164 C 1501.727 1314.891, 1497.110 1302.499, 1486.453 1298.429 L 1482 1296.728 1482 1268.441 L 1482 1240.154 1485.121 1237.033 C 1487.839 1234.314, 1488.165 1233.430, 1487.644 1230.174 C 1487.046 1226.436, 1487.046 1226.436, 1507.523 1205.977 L 1528 1185.518 1528 1178.004 L 1528 1170.491 1562.997 1135.495 C 1582.245 1116.248, 1597.995 1099.938, 1597.997 1099.250 C 1598.008 1094.982, 1591.624 1100.635, 1559.108 1133.688 M 441 1111 C 439.900 1112.100, 439 1114.092, 439 1115.427 C 439 1118.709, 443.647 1122.321, 447.006 1121.649 C 449.193 1121.211, 450.967 1122.647, 459.886 1132.071 C 469.170 1141.881, 474 1145.265, 474 1141.960 C 474 1141.389, 469.111 1136.047, 463.136 1130.091 C 454.268 1121.251, 452.140 1118.557, 451.553 1115.430 C 450.383 1109.192, 445.048 1106.952, 441 1111 M 1602.250 1110.524 C 1600.605 1111.686, 1600 1113.113, 1600 1115.833 C 1600 1119.252, 1599.070 1120.472, 1588.516 1130.898 C 1577.944 1141.341, 1576.079 1144, 1579.326 1144 C 1579.990 1144, 1585.469 1139.050, 1591.500 1133 C 1600.888 1123.582, 1602.926 1122, 1605.662 1122 C 1611.440 1122, 1614.534 1116.540, 1611.257 1112.130 C 1608.919 1108.984, 1605.334 1108.345, 1602.250 1110.524 M 1435.494 1138.006 C 1420.942 1152.590, 1421.263 1151.531, 1429.330 1158.369 L 1433.996 1162.324 1441.451 1154.412 L 1448.906 1146.500 1448.953 1135.750 C 1448.979 1129.838, 1448.881 1125, 1448.736 1125 C 1448.590 1125, 1442.632 1130.853, 1435.494 1138.006 M 602 1136.273 L 602 1146.547 609.995 1154.495 L 617.989 1162.442 623.505 1156.995 L 629.020 1151.548 616.275 1138.774 C 609.264 1131.748, 603.185 1126, 602.764 1126 C 602.344 1126, 602 1130.623, 602 1136.273 M 701.165 1264.597 C 698.547 1266.431, 698.508 1270.678, 701.095 1272.296 C 706.073 1275.411, 711.574 1268.503, 707.040 1264.831 C 704.286 1262.601, 704.029 1262.591, 701.165 1264.597 M 1344.200 1265.200 C 1341.790 1267.610, 1342.958 1272.076, 1346.322 1273.319 C 1350.286 1274.784, 1353.523 1270.647, 1351.883 1266.213 C 1350.965 1263.732, 1346.285 1263.115, 1344.200 1265.200 M 563.848 1301.962 C 558.977 1304.610, 555.999 1309.605, 556.004 1315.118 C 556.017 1330.666, 576.840 1335.769, 584.148 1322.016 C 590.823 1309.455, 576.354 1295.162, 563.848 1301.962 M 1476.791 1301.013 C 1472.187 1302.359, 1468.299 1305.795, 1466.614 1310.007 C 1464.451 1315.412, 1464.577 1317.886, 1467.275 1322.987 C 1474.483 1336.617, 1495 1331.447, 1495 1316 C 1495 1306.472, 1485.333 1298.516, 1476.791 1301.013 M 666.667 1347.667 C 664.963 1349.371, 666.424 1352.568, 671.226 1357.646 C 678 1364.808, 679.609 1365.664, 682.083 1363.425 C 683.137 1362.471, 684 1361.271, 684 1360.758 C 684 1360.246, 681.229 1356.941, 677.841 1353.413 C 672.119 1347.454, 668.659 1345.674, 666.667 1347.667 M 1374.020 1352.818 C 1367.836 1358.429, 1367.596 1358.818, 1368.749 1361.348 C 1369.413 1362.807, 1370.767 1364, 1371.757 1364 C 1372.748 1364, 1376.463 1361.068, 1380.015 1357.485 C 1385.419 1352.033, 1386.294 1350.688, 1385.384 1349.235 C 1383.322 1345.947, 1380.673 1346.782, 1374.020 1352.818 M 1019.763 1355.565 C 1016.532 1357.318, 1013.998 1361.777, 1014.004 1365.700 C 1014.009 1369.648, 1017.564 1375.009, 1021.049 1376.325 L 1024 1377.438 1023.984 1509.469 L 1023.968 1641.500 1015.020 1647.500 L 1006.072 1653.500 1006.036 1662.183 L 1006 1670.867 1015.673 1678.940 C 1024.034 1685.919, 1025.576 1686.844, 1027.041 1685.757 C 1027.974 1685.066, 1032.616 1681.350, 1037.357 1677.500 L 1045.978 1670.500 1045.989 1662.236 L 1046 1653.973 1037 1647.392 L 1028 1640.811 1028 1509.133 L 1028 1377.455 1031.382 1375.633 C 1035.323 1373.511, 1037 1370.390, 1037 1365.175 C 1037 1356.623, 1027.536 1351.347, 1019.763 1355.565 M 684.960 1366.040 C 682.938 1368.062, 682.937 1368.103, 684.852 1370.793 C 685.915 1372.285, 689.332 1375.915, 692.445 1378.860 C 697.921 1384.039, 698.170 1384.156, 700.053 1382.452 C 701.124 1381.483, 702 1380.041, 702 1379.248 C 702 1377.718, 689.257 1364, 687.836 1364 C 687.376 1364, 686.082 1364.918, 684.960 1366.040 M 1356.004 1371.496 C 1348.563 1378.987, 1347.889 1380.800, 1351.774 1382.879 C 1353.369 1383.733, 1354.774 1382.768, 1360.870 1376.631 C 1368.197 1369.255, 1368.814 1367.614, 1365.125 1365.310 C 1363.535 1364.317, 1362.310 1365.148, 1356.004 1371.496 M 705.214 1384.563 C 702.567 1386.417, 702.473 1387.824, 704.821 1390.500 C 708.957 1395.215, 710.734 1396.213, 712.917 1395.045 C 715.988 1393.401, 715.470 1390.864, 711.214 1386.709 C 707.629 1383.208, 707.311 1383.094, 705.214 1384.563 M 1340.003 1386.883 C 1335.522 1391.145, 1335.319 1392.472, 1338.792 1394.778 C 1340.816 1396.122, 1341.227 1395.973, 1344.487 1392.713 C 1348.476 1388.724, 1348.811 1387.044, 1346.105 1384.595 C 1344.295 1382.957, 1344.022 1383.059, 1340.003 1386.883 M 999 1488.118 L 999 1583.236 996 1586.653 C 994.350 1588.532, 993 1590.974, 993 1592.080 C 993 1594.902, 997.415 1599, 1000.455 1599 C 1006.627 1599, 1009.445 1590.069, 1004.500 1586.179 L 1002 1584.212 1002 1488.606 C 1002 1404.290, 1001.823 1393, 1000.500 1393 C 999.177 1393, 999 1404.235, 999 1488.118 M 1048.432 1394.316 C 1048.155 1395.039, 1048.056 1441.384, 1048.214 1497.305 C 1048.433 1575.292, 1048.222 1599.085, 1047.308 1599.435 C 1044.938 1600.345, 1042.892 1604.722, 1043.572 1607.429 C 1044.333 1610.463, 1049.009 1613.293, 1051.687 1612.341 C 1057.359 1610.323, 1058.695 1604.941, 1054.500 1601 L 1052 1598.651 1052 1495.826 C 1052 1404.155, 1051.834 1393, 1050.469 1393 C 1049.626 1393, 1048.710 1393.592, 1048.432 1394.316 M 716.581 1396.561 C 713.967 1399.176, 714.739 1401.311, 720.281 1406.784 C 726.716 1413.139, 731 1413.593, 731 1407.921 C 731 1406.654, 724.286 1399.340, 720.928 1396.949 C 718.407 1395.154, 718.023 1395.119, 716.581 1396.561 M 1326.516 1400.984 C 1321.597 1405.955, 1320.835 1407.207, 1321.388 1409.411 C 1321.780 1410.971, 1322.738 1412, 1323.800 1412 C 1325.702 1412, 1337 1401.160, 1337 1399.336 C 1337 1398.728, 1335.941 1397.536, 1334.647 1396.688 C 1332.369 1395.196, 1332.106 1395.335, 1326.516 1400.984 M 882.994 1430.506 L 877.541 1436.028 886.768 1445.255 L 895.996 1454.482 901.502 1448.976 L 907.009 1443.469 897.728 1434.227 L 888.447 1424.985 882.994 1430.506 M 1152.998 1434.502 L 1143.557 1443.982 1148.491 1448.991 C 1151.205 1451.746, 1153.892 1453.985, 1154.462 1453.967 C 1155.033 1453.949, 1159.508 1450.143, 1164.408 1445.510 C 1171.228 1439.059, 1173.062 1436.782, 1172.236 1435.792 C 1171.642 1435.082, 1169.195 1432.367, 1166.798 1429.761 L 1162.439 1425.022 1152.998 1434.502 M 1283.741 1479.469 C 1278.630 1481.239, 1277.006 1482.753, 1274.740 1487.865 C 1273.039 1491.702, 1272.954 1492.763, 1274.036 1496.629 C 1276.543 1505.582, 1285.322 1509.894, 1293.849 1506.361 C 1311.109 1499.207, 1301.392 1473.357, 1283.741 1479.469 M 755.418 1481.915 C 752.651 1483.106, 748.153 1488.541, 747.378 1491.631 C 746.484 1495.193, 747.645 1501.047, 749.827 1503.977 C 752.536 1507.615, 759.865 1510.436, 764.399 1509.585 C 772.746 1508.019, 778.298 1499.066, 775.896 1491.047 C 773.994 1484.698, 770.075 1481.685, 763.251 1481.323 C 760.088 1481.156, 756.563 1481.422, 755.418 1481.915 M 1282.799 1483.673 C 1273.065 1489.912, 1276.976 1504, 1288.442 1504 C 1293.649 1504, 1297.395 1501.362, 1298.972 1496.585 C 1300.414 1492.215, 1299.526 1488.879, 1296.031 1485.529 C 1292.439 1482.088, 1286.558 1481.263, 1282.799 1483.673 M 757.500 1484.894 C 753.021 1486.842, 749.837 1492.697, 750.727 1497.350 C 751.015 1498.861, 752.580 1501.426, 754.203 1503.049 C 756.601 1505.447, 758.001 1506, 761.677 1506 C 765.519 1506, 766.731 1505.469, 769.727 1502.473 C 772.977 1499.223, 773.213 1498.586, 772.737 1494.355 C 772.078 1488.511, 768.780 1485.007, 763.403 1484.438 C 761.256 1484.210, 758.600 1484.416, 757.500 1484.894 M 1137.035 1581.465 C 1130.729 1587.828, 1130.656 1587.963, 1132.468 1589.965 C 1133.481 1591.084, 1134.847 1592, 1135.503 1592 C 1137.126 1592, 1148 1580.492, 1148 1578.774 C 1148 1577.134, 1146.033 1575, 1144.521 1575 C 1143.928 1575, 1140.559 1577.909, 1137.035 1581.465 M 1120.221 1598.277 C 1113.594 1604.964, 1112.726 1607.248, 1116.120 1609.064 C 1118.004 1610.073, 1118.896 1609.550, 1124.123 1604.378 C 1130.544 1598.025, 1131.801 1595.670, 1129.960 1593.452 C 1127.989 1591.077, 1126.747 1591.693, 1120.221 1598.277" stroke="none" fill="#26252c" fill-rule="evenodd"/></svg>